<svg xmlns="http://www.w3.org/2000/svg" viewBox="0 0 1024 1024" role="img" aria-labelledby="t d">
  <title id="t">Acelerador Quantico</title>
  <desc id="d">Avatar de espirito musical com nucleo quantico animado.</desc>
  <defs>
    <linearGradient id="bg" x1="0" y1="0" x2="1" y2="1">
      <stop offset="0%" stop-color="#03111f"/>
      <stop offset="100%" stop-color="#20205a"/>
    </linearGradient>
    <linearGradient id="frame" x1="0" y1="0" x2="1" y2="1">
      <stop offset="0%" stop-color="#6bffd4"/>
      <stop offset="100%" stop-color="#7db2ff"/>
    </linearGradient>
    <radialGradient id="halo" cx="0.5" cy="0.45" r="0.5">
      <stop offset="0%" stop-color="#58f9ff" stop-opacity="0.56"/>
      <stop offset="100%" stop-color="#58f9ff" stop-opacity="0"/>
    </radialGradient>
  </defs>
  <rect width="1024" height="1024" rx="76" fill="url(#bg)"/>
  <rect x="70" y="70" width="884" height="884" rx="54" fill="none" stroke="url(#frame)" stroke-width="8"/>
  <rect x="104" y="104" width="816" height="816" rx="42" fill="none" stroke="#8fd9ff" stroke-opacity="0.26" stroke-width="2" stroke-dasharray="18 12"/>
  <circle cx="512" cy="492" r="280" fill="url(#halo)"/>
  <circle cx="512" cy="492" r="214" fill="#07192f" stroke="#6bffc8" stroke-opacity="0.9" stroke-width="6"/>

  <g transform-origin="512 492" fill="none">
    <animateTransform attributeName="transform" type="rotate" from="0 512 492" to="360 512 492" dur="7s" repeatCount="indefinite"/>
    <ellipse cx="512" cy="492" rx="184" ry="98" stroke="#9dc4ff" stroke-width="4"/>
  </g>
  <g transform-origin="512 492" fill="none">
    <animateTransform attributeName="transform" type="rotate" from="360 512 492" to="0 512 492" dur="9s" repeatCount="indefinite"/>
    <ellipse cx="512" cy="492" rx="98" ry="184" stroke="#7efff0" stroke-width="4"/>
  </g>
  <g>
    <animateTransform attributeName="transform" type="scale" values="1;1.08;1" dur="2s" repeatCount="indefinite" additive="sum"/>
    <path d="M512 348 L640 422 L640 570 L512 644 L384 570 L384 422 Z" fill="#67ffe6" fill-opacity="0.16" stroke="#9dc4ff" stroke-width="4"/>
    <path d="M512 404 L554 492 L512 580 L470 492 Z" fill="#7ef5ff" fill-opacity="0.4" stroke="#cbf3ff" stroke-width="3"/>
  </g>

  <text x="512" y="745" fill="#d8f4ff" font-family="Arial, sans-serif" font-size="96" font-weight="800" text-anchor="middle">AQ</text>
</svg>
